<svg width="960" height="640" viewBox="0 0 960 640" fill="none" xmlns="http://www.w3.org/2000/svg">
  <rect width="960" height="640" rx="36" fill="#F8F2E8"/>
  <rect x="84" y="82" width="792" height="476" rx="28" fill="#FFFDF7"/>
  <path d="M131 436C216 322 299 266 409 266C505 266 576 330 659 330C726 330 782 293 829 253V522H131V436Z" fill="#DDE7D7"/>
  <circle cx="317" cy="300" r="82" fill="#CB8D52"/>
  <circle cx="317" cy="300" r="52" stroke="#F9E8D4" stroke-width="18"/>
  <path d="M391 337C391 287 431 247 481 247H611C661 247 701 287 701 337C701 387 661 427 611 427H498C439 427 391 393 391 337Z" fill="#4E7550"/>
  <rect x="164" y="133" width="224" height="22" rx="11" fill="#4E7550"/>
  <rect x="164" y="175" width="168" height="18" rx="9" fill="#CB8D52"/>
  <rect x="596" y="143" width="181" height="110" rx="20" fill="#F3E5CE"/>
  <path d="M631 197H742" stroke="#4E7550" stroke-width="10" stroke-linecap="round"/>
  <path d="M631 171H698" stroke="#CB8D52" stroke-width="10" stroke-linecap="round"/>
</svg>
